<svg width="2036" height="1182" viewBox="0 0 2036 1182" fill="none" xmlns="http://www.w3.org/2000/svg">
<rect width="2000" height="1143" fill="black"/>
<rect x="692" y="538" width="1344" height="644" fill="white"/>
<g clip-path="url(#clip0_36_133)">
<path d="M1057.9 886.667L1125.9 847.384L976.766 761.414V722L1126.66 808.402V886.292L1057.9 926.024V886.667Z" fill="#2A9D8F"/>
<path d="M988.758 807.333L920.759 846.616L1069.89 932.586V972L920 885.598V807.708L988.758 767.976V807.333Z" fill="#2A9D8F"/>
<path d="M1023.14 884.341C1044.2 884.341 1061.28 867.257 1061.28 846.184C1061.28 825.11 1044.2 808.027 1023.14 808.027C1002.07 808.027 984.997 825.11 984.997 846.184C984.997 867.257 1002.07 884.341 1023.14 884.341Z" fill="#2D2D2D"/>
<circle cx="1023" cy="846" r="38" fill="black"/>
</g>
<g clip-path="url(#clip1_36_133)">
<path d="M1057.9 886.667L1125.9 847.384L976.766 761.414V722L1126.66 808.402V886.292L1057.9 926.024V886.667Z" fill="#2A9D8F"/>
<path d="M988.758 807.333L920.759 846.616L1069.89 932.586V972L920 885.598V807.708L988.758 767.976V807.333Z" fill="#2A9D8F"/>
<path d="M1023.14 884.341C1044.2 884.341 1061.28 867.257 1061.28 846.184C1061.28 825.11 1044.2 808.027 1023.14 808.027C1002.07 808.027 984.997 825.11 984.997 846.184C984.997 867.257 1002.07 884.341 1023.14 884.341Z" fill="#2D2D2D"/>
<circle cx="1023" cy="846" r="38" fill="black"/>
</g>
<g clip-path="url(#clip2_36_133)">
<path d="M1057.9 886.667L1125.9 847.384L976.766 761.414V722L1126.66 808.402V886.292L1057.9 926.024V886.667Z" fill="#2A9D8F"/>
<path d="M988.758 807.333L920.759 846.616L1069.89 932.586V972L920 885.598V807.708L988.758 767.976V807.333Z" fill="#2A9D8F"/>
<path d="M1023.14 884.341C1044.2 884.341 1061.28 867.257 1061.28 846.184C1061.28 825.11 1044.2 808.027 1023.14 808.027C1002.07 808.027 984.997 825.11 984.997 846.184C984.997 867.257 1002.07 884.341 1023.14 884.341Z" fill="#2D2D2D"/>
<circle cx="1023" cy="846" r="38" fill="black"/>
</g>
<g clip-path="url(#clip3_36_133)">
<path d="M1057.9 316.667L1125.9 277.384L976.766 191.414V152L1126.66 238.402V316.292L1057.9 356.024V316.667Z" fill="#2A9D8F"/>
<path d="M988.758 237.333L920.759 276.616L1069.89 362.586V402L920 315.598V237.708L988.758 197.976V237.333Z" fill="#2A9D8F"/>
<path d="M1023.14 314.341C1044.2 314.341 1061.28 297.257 1061.28 276.184C1061.28 255.11 1044.2 238.027 1023.14 238.027C1002.07 238.027 984.997 255.11 984.997 276.184C984.997 297.257 1002.07 314.341 1023.14 314.341Z" fill="#2D2D2D"/>
<circle cx="1023" cy="276" r="38" fill="black"/>
</g>
<g clip-path="url(#clip4_36_133)">
<path d="M1059.9 888.667L1127.9 849.384L978.766 763.414V724L1128.66 810.402V888.292L1059.9 928.024V888.667Z" fill="#2A9D8F"/>
<path d="M990.758 809.333L922.759 848.616L1071.89 934.586V974L922 887.598V809.708L990.758 769.976V809.333Z" fill="#2A9D8F"/>
<path d="M1025.14 886.341C1046.2 886.341 1063.28 869.257 1063.28 848.184C1063.28 827.11 1046.2 810.027 1025.14 810.027C1004.07 810.027 986.997 827.11 986.997 848.184C986.997 869.257 1004.07 886.341 1025.14 886.341Z" fill="#2D2D2D"/>
<circle cx="1025" cy="848" r="38" fill="black"/>
</g>
<circle cx="1023" cy="277" r="38" fill="white"/>
<path d="M1183.5 195H1228L1271.75 311H1272.25L1316.75 195H1358.5L1285.5 372H1254.25L1183.5 195ZM1376.53 195H1415.53V372H1376.53V195ZM1538.5 238.25C1535.33 234.25 1531 231.333 1525.5 229.5C1520.17 227.5 1515.08 226.5 1510.25 226.5C1507.42 226.5 1504.5 226.833 1501.5 227.5C1498.5 228.167 1495.67 229.25 1493 230.75C1490.33 232.083 1488.17 233.917 1486.5 236.25C1484.83 238.583 1484 241.417 1484 244.75C1484 250.083 1486 254.167 1490 257C1494 259.833 1499 262.25 1505 264.25C1511.17 266.25 1517.75 268.25 1524.75 270.25C1531.75 272.25 1538.25 275.083 1544.25 278.75C1550.42 282.417 1555.5 287.333 1559.5 293.5C1563.5 299.667 1565.5 307.917 1565.5 318.25C1565.5 328.083 1563.67 336.667 1560 344C1556.33 351.333 1551.33 357.417 1545 362.25C1538.83 367.083 1531.58 370.667 1523.25 373C1515.08 375.333 1506.42 376.5 1497.25 376.5C1485.75 376.5 1475.08 374.75 1465.25 371.25C1455.42 367.75 1446.25 362.083 1437.75 354.25L1465.5 323.75C1469.5 329.083 1474.5 333.25 1480.5 336.25C1486.67 339.083 1493 340.5 1499.5 340.5C1502.67 340.5 1505.83 340.167 1509 339.5C1512.33 338.667 1515.25 337.5 1517.75 336C1520.42 334.5 1522.5 332.583 1524 330.25C1525.67 327.917 1526.5 325.167 1526.5 322C1526.5 316.667 1524.42 312.5 1520.25 309.5C1516.25 306.333 1511.17 303.667 1505 301.5C1498.83 299.333 1492.17 297.167 1485 295C1477.83 292.833 1471.17 289.917 1465 286.25C1458.83 282.583 1453.67 277.75 1449.5 271.75C1445.5 265.75 1443.5 257.833 1443.5 248C1443.5 238.5 1445.33 230.167 1449 223C1452.83 215.833 1457.83 209.833 1464 205C1470.33 200.167 1477.58 196.583 1485.75 194.25C1493.92 191.75 1502.33 190.5 1511 190.5C1521 190.5 1530.67 191.917 1540 194.75C1549.33 197.583 1557.75 202.333 1565.25 209L1538.5 238.25ZM1594.05 195H1633.05V372H1594.05V195ZM1726.78 195H1759.03L1836.03 372H1792.03L1776.78 334.5H1708.03L1693.28 372H1650.28L1726.78 195ZM1741.78 246.5L1720.28 301.5H1763.53L1741.78 246.5Z" fill="white"/>
<path d="M1183.5 763H1228L1271.75 879H1272.25L1316.75 763H1358.5L1285.5 940H1254.25L1183.5 763ZM1376.53 763H1415.53V940H1376.53V763ZM1538.5 806.25C1535.33 802.25 1531 799.333 1525.5 797.5C1520.17 795.5 1515.08 794.5 1510.25 794.5C1507.42 794.5 1504.5 794.833 1501.5 795.5C1498.5 796.167 1495.67 797.25 1493 798.75C1490.33 800.083 1488.17 801.917 1486.5 804.25C1484.83 806.583 1484 809.417 1484 812.75C1484 818.083 1486 822.167 1490 825C1494 827.833 1499 830.25 1505 832.25C1511.17 834.25 1517.75 836.25 1524.75 838.25C1531.75 840.25 1538.25 843.083 1544.25 846.75C1550.42 850.417 1555.5 855.333 1559.5 861.5C1563.5 867.667 1565.5 875.917 1565.5 886.25C1565.5 896.083 1563.67 904.667 1560 912C1556.33 919.333 1551.33 925.417 1545 930.25C1538.83 935.083 1531.58 938.667 1523.25 941C1515.08 943.333 1506.42 944.5 1497.25 944.5C1485.75 944.5 1475.08 942.75 1465.25 939.25C1455.42 935.75 1446.25 930.083 1437.75 922.25L1465.5 891.75C1469.5 897.083 1474.5 901.25 1480.5 904.25C1486.67 907.083 1493 908.5 1499.5 908.5C1502.67 908.5 1505.83 908.167 1509 907.5C1512.33 906.667 1515.25 905.5 1517.75 904C1520.42 902.5 1522.5 900.583 1524 898.25C1525.67 895.917 1526.5 893.167 1526.5 890C1526.5 884.667 1524.42 880.5 1520.25 877.5C1516.25 874.333 1511.17 871.667 1505 869.5C1498.83 867.333 1492.17 865.167 1485 863C1477.83 860.833 1471.17 857.917 1465 854.25C1458.83 850.583 1453.67 845.75 1449.5 839.75C1445.5 833.75 1443.5 825.833 1443.5 816C1443.5 806.5 1445.33 798.167 1449 791C1452.83 783.833 1457.83 777.833 1464 773C1470.33 768.167 1477.58 764.583 1485.75 762.25C1493.92 759.75 1502.33 758.5 1511 758.5C1521 758.5 1530.67 759.917 1540 762.75C1549.33 765.583 1557.75 770.333 1565.25 777L1538.5 806.25ZM1594.05 763H1633.05V940H1594.05V763ZM1726.78 763H1759.03L1836.03 940H1792.03L1776.78 902.5H1708.03L1693.28 940H1650.28L1726.78 763ZM1741.78 814.5L1720.28 869.5H1763.53L1741.78 814.5Z" fill="black"/>
<rect width="787" height="1182" fill="white"/>
<defs>
<clipPath id="clip0_36_133">
<rect width="615" height="250" fill="white" transform="translate(920 722)"/>
</clipPath>
<clipPath id="clip1_36_133">
<rect width="615" height="250" fill="white" transform="translate(920 722)"/>
</clipPath>
<clipPath id="clip2_36_133">
<rect width="615" height="250" fill="white" transform="translate(920 722)"/>
</clipPath>
<clipPath id="clip3_36_133">
<rect width="615" height="250" fill="white" transform="translate(920 152)"/>
</clipPath>
<clipPath id="clip4_36_133">
<rect width="615" height="250" fill="white" transform="translate(922 724)"/>
</clipPath>
</defs>
</svg>
