<svg width="920" height="250" viewBox="0 0 920 250" fill="none" xmlns="http://www.w3.org/2000/svg">
<!-- Icon -->
<path d="M137.9 164.667L205.9 125.384L56.766 39.414V0L206.66 86.402V164.292L137.9 204.024V164.667Z" fill="#2A9D8F"/>
<path d="M68.758 85.333L0.759 124.616L149.89 210.586V250L0 163.598V85.708L68.758 45.976V85.333Z" fill="#2A9D8F"/>
<path d="M103.14 162.341C124.2 162.341 141.28 145.257 141.28 124.184C141.28 103.11 124.2 86.027 103.14 86.027C82.07 86.027 64.997 103.11 64.997 124.184C64.997 145.257 82.07 162.341 103.14 162.341Z" fill="#2D2D2D"/>
<circle cx="103" cy="124" r="38" fill="black"/>
<!-- VISIA text -->
<path d="M263.5 43H308L351.75 159H352.25L396.75 43H438.5L365.5 220H334.25L263.5 43ZM456.53 43H495.53V220H456.53V43ZM618.5 86.25C615.33 82.25 611 79.333 605.5 77.5C600.17 75.5 595.08 74.5 590.25 74.5C587.42 74.5 584.5 74.833 581.5 75.5C578.5 76.167 575.67 77.25 573 78.75C570.33 80.083 568.17 81.917 566.5 84.25C564.83 86.583 564 89.417 564 92.75C564 98.083 566 102.167 570 105C574 107.833 579 110.25 585 112.25C591.17 114.25 597.75 116.25 604.75 118.25C611.75 120.25 618.25 123.083 624.25 126.75C630.42 130.417 635.5 135.333 639.5 141.5C643.5 147.667 645.5 155.917 645.5 166.25C645.5 176.083 643.67 184.667 640 192C636.33 199.333 631.33 205.417 625 210.25C618.83 215.083 611.58 218.667 603.25 221C595.08 223.333 586.42 224.5 577.25 224.5C565.75 224.5 555.08 222.75 545.25 219.25C535.42 215.75 526.25 210.083 517.75 202.25L545.5 171.75C549.5 177.083 554.5 181.25 560.5 184.25C566.67 187.083 573 188.5 579.5 188.5C582.67 188.5 585.83 188.167 589 187.5C592.33 186.667 595.25 185.5 597.75 184C600.42 182.5 602.5 180.583 604 178.25C605.67 175.917 606.5 173.167 606.5 170C606.5 164.667 604.42 160.5 600.25 157.5C596.25 154.333 591.17 151.667 585 149.5C578.83 147.333 572.17 145.167 565 143C557.83 140.833 551.17 137.917 545 134.25C538.83 130.583 533.67 125.75 529.5 119.75C525.5 113.75 523.5 105.833 523.5 96C523.5 86.5 525.33 78.167 529 71C532.83 63.833 537.83 57.833 544 53C550.33 48.167 557.58 44.583 565.75 42.25C573.92 39.75 582.33 38.5 591 38.5C601 38.5 610.67 39.917 620 42.75C629.33 45.583 637.75 50.333 645.25 57L618.5 86.25ZM674.05 43H713.05V220H674.05V43ZM806.78 43H839.03L916.03 220H872.03L856.78 182.5H788.03L773.28 220H730.28L806.78 43ZM821.78 94.5L800.28 149.5H843.53L821.78 94.5Z" fill="black"/>
</svg>
